<svg version="1.1" xmlns="http://www.w3.org/2000/svg" width="100px" height="100px" viewBox="0,0,256,256">
    <g fill="#ffffff" fill-rule="nonzero" stroke="none" stroke-width="1" stroke-linecap="butt" stroke-linejoin="miter" stroke-miterlimit="10" stroke-dasharray="" stroke-dashoffset="0" font-family="none" font-weight="none" font-size="none" text-anchor="none" style="mix-blend-mode: normal"><g transform="scale(5.12,5.12)"><path d="M5.8125,2c-0.47656,0.08984 -0.82031,0.51172 -0.8125,1v5h-2.15625c-1.5625,0 -2.84375,1.28125 -2.84375,2.84375v33.3125c0,1.5625 1.28125,2.84375 2.84375,2.84375h16.6875c0.47266,0.73047 2.08984,3 5.46875,3c3.37891,0 4.99609,-2.26953 5.46875,-3h16.6875c1.5625,0 2.84375,-1.28125 2.84375,-2.84375v-33.3125c0,-1.5625 -1.28125,-2.84375 -2.84375,-2.84375h-2.15625v-5c0,-0.55078 -0.44922,-1 -1,-1c-7.63281,0 -12.5625,1.54297 -15.59375,3.125c-1.51562,0.79297 -2.54687,1.56641 -3.21875,2.1875c-0.08203,0.07422 -0.11719,0.11719 -0.1875,0.1875c-0.07031,-0.07031 -0.10547,-0.11328 -0.1875,-0.1875c-0.67187,-0.62109 -1.70312,-1.39453 -3.21875,-2.1875c-3.03125,-1.58203 -7.96094,-3.125 -15.59375,-3.125c-0.03125,0 -0.0625,0 -0.09375,0c-0.03125,0 -0.0625,0 -0.09375,0zM7,4.0625c6.73828,0.13672 11.07422,1.46484 13.65625,2.8125c1.35938,0.70703 2.26563,1.43359 2.8125,1.9375c0.42969,0.39453 0.46875,0.50781 0.53125,0.59375v31.84375c-0.66406,-0.36328 -1.39062,-0.76953 -2.59375,-1.1875c-2.85156,-0.98828 -7.52734,-1.90234 -14.40625,-2zM43,4.0625v34c-6.87891,0.09766 -11.55469,1.01172 -14.40625,2c-1.20312,0.41797 -1.92969,0.82422 -2.59375,1.1875v-31.84375c0.0625,-0.08594 0.10156,-0.19922 0.53125,-0.59375c0.54688,-0.50391 1.45313,-1.23047 2.8125,-1.9375c2.58203,-1.34766 6.91797,-2.67578 13.65625,-2.8125zM2.84375,10h2.15625v29c0,0.55078 0.44922,1 1,1c7.36719,0 12.02344,0.98047 14.78125,1.9375c1.37891,0.47656 2.26172,0.94531 2.8125,1.28125c0.42969,0.26172 0.58984,0.38281 0.65625,0.4375c0.22266,0.24219 0.55078,0.35938 0.875,0.3125c0.01172,0 0.01953,0 0.03125,0c0.16016,-0.02734 0.30859,-0.08984 0.4375,-0.1875c0.08203,-0.05078 0.15625,-0.11328 0.21875,-0.1875c0.10547,-0.08203 0.28516,-0.1875 0.59375,-0.375c0.55078,-0.33594 1.43359,-0.80469 2.8125,-1.28125c2.75781,-0.95703 7.41406,-1.9375 14.78125,-1.9375c0.55078,0 1,-0.44922 1,-1v-29h2.15625c0.47656,0 0.84375,0.36328 0.84375,0.84375v33.3125c0,0.48047 -0.36719,0.84375 -0.84375,0.84375h-17.15625c-0.35937,-0.00391 -0.69531,0.1875 -0.875,0.5c0,0 -1.39453,2.5 -4.125,2.5c-2.73047,0 -4.125,-2.5 -4.125,-2.5c-0.17969,-0.3125 -0.51562,-0.50391 -0.875,-0.5h-17.15625c-0.47656,0 -0.84375,-0.36328 -0.84375,-0.84375v-33.3125c0,-0.48047 0.36719,-0.84375 0.84375,-0.84375z"></path></g></g>
</svg>