<?xml version="1.0" encoding="UTF-8"?>
<svg id="uuid-bb8291fa-2914-497a-96f8-7c27de6183d0" data-name="MageRocket" xmlns="http://www.w3.org/2000/svg" width="55.56mm" height="13.22mm" viewBox="0 0 1158.26 216">
  <g id="uuid-739bc746-5384-48e1-923c-81e52d3f3f91" data-name="mage">
    <path d="M157.4,142.54h-17.6v-58.4c0-10.93-1.77-19-5.3-24.2-3.53-5.2-8.77-7.8-15.7-7.8s-13.63,2.57-19.3,7.7c-5.67,5.13-9.7,11.77-12.1,19.9v62.8h-17.6v-58.4c0-11.2-1.73-19.33-5.2-24.4-3.47-5.07-8.67-7.6-15.6-7.6s-13.47,2.5-19.2,7.5c-5.73,5-9.8,11.63-12.2,19.9v63H0V38.14h16v22.4c4.27-7.73,9.8-13.7,16.6-17.9,6.8-4.2,14.47-6.3,23-6.3s15.77,2.37,20.9,7.1c5.13,4.73,8.3,10.83,9.5,18.3,9.33-16.93,22.6-25.4,39.8-25.4,6,0,11.03,1.1,15.1,3.3,4.07,2.2,7.3,5.27,9.7,9.2,2.4,3.93,4.13,8.57,5.2,13.9,1.07,5.33,1.6,11.13,1.6,17.4v62.4Z" style="fill: #e45f20; stroke-width: 0px;"/>
    <path d="M212.2,144.54c-5.2,0-10-.83-14.4-2.5-4.4-1.67-8.2-3.93-11.4-6.8-3.2-2.87-5.7-6.27-7.5-10.2-1.8-3.93-2.7-8.1-2.7-12.5,0-4.93,1.07-9.43,3.2-13.5,2.13-4.07,5.17-7.53,9.1-10.4,3.93-2.87,8.6-5.07,14-6.6,5.4-1.53,11.3-2.3,17.7-2.3,5.07,0,10.2.47,15.4,1.4,5.2.93,9.8,2.2,13.8,3.8v-8.4c0-8.53-2.4-15.23-7.2-20.1-4.8-4.87-11.6-7.3-20.4-7.3-10.53,0-21.6,4.07-33.2,12.2l-5.8-11.4c6.8-4.53,13.53-7.93,20.2-10.2,6.67-2.27,13.6-3.4,20.8-3.4,13.33,0,23.87,3.67,31.6,11,7.73,7.33,11.6,17.67,11.6,31v42.6c0,4.13,1.87,6.27,5.6,6.4v15.2c-1.33.27-2.6.47-3.8.6-1.2.13-2.33.2-3.4.2-2.93,0-5.8-.8-8.6-2.4-2.8-1.6-4.33-4.33-4.6-8.2l-.4-7.4c-2.4,3.2-5.13,6-8.2,8.4-3.07,2.4-6.33,4.4-9.8,6-3.47,1.6-7.03,2.8-10.7,3.6-3.67.8-7.3,1.2-10.9,1.2ZM216.6,131.34c5.6,0,11.07-1.2,16.4-3.6,5.33-2.4,9.53-5.33,12.6-8.8,2.53-2.93,3.8-5.67,3.8-8.2v-15.4c-4.13-1.6-8.5-2.83-13.1-3.7-4.6-.87-9.03-1.3-13.3-1.3-9.07,0-16.33,1.83-21.8,5.5-5.47,3.67-8.2,8.7-8.2,15.1,0,2.67.53,5.23,1.6,7.7,1.07,2.47,2.6,4.63,4.6,6.5,2,1.87,4.47,3.37,7.4,4.5,2.93,1.13,6.27,1.7,10,1.7Z" style="fill: #e45f20; stroke-width: 0px;"/>
    <path d="M337.2,143.74c-7.07,0-13.57-1.47-19.5-4.4-5.93-2.93-11.03-6.87-15.3-11.8-4.27-4.93-7.57-10.6-9.9-17-2.33-6.4-3.5-13.07-3.5-20,0-7.33,1.17-14.3,3.5-20.9,2.33-6.6,5.63-12.37,9.9-17.3,4.27-4.93,9.37-8.83,15.3-11.7,5.93-2.87,12.5-4.3,19.7-4.3,8.8,0,16.4,2.13,22.8,6.4,6.4,4.27,11.8,9.67,16.2,16.2v-20.8h15.6v103.2c0,7.47-1.4,14.03-4.2,19.7-2.8,5.67-6.6,10.43-11.4,14.3-4.8,3.87-10.43,6.8-16.9,8.8-6.47,2-13.37,3-20.7,3-11.87,0-21.5-2.03-28.9-6.1-7.4-4.07-13.57-9.7-18.5-16.9l10.2-9c4.13,6.13,9.47,10.73,16,13.8,6.53,3.07,13.6,4.6,21.2,4.6,4.8,0,9.37-.67,13.7-2,4.33-1.33,8.1-3.33,11.3-6,3.2-2.67,5.77-6,7.7-10,1.93-4,2.9-8.73,2.9-14.2v-18.4c-2,3.2-4.37,6.1-7.1,8.7-2.73,2.6-5.7,4.8-8.9,6.6-3.2,1.8-6.6,3.17-10.2,4.1-3.6.93-7.27,1.4-11,1.4ZM342.6,129.34c3.73,0,7.33-.67,10.8-2,3.47-1.33,6.67-3.1,9.6-5.3,2.93-2.2,5.4-4.7,7.4-7.5s3.33-5.67,4-8.6v-30c-1.47-3.6-3.37-6.87-5.7-9.8-2.33-2.93-4.97-5.5-7.9-7.7-2.93-2.2-6.1-3.9-9.5-5.1-3.4-1.2-6.83-1.8-10.3-1.8-5.33,0-10.1,1.13-14.3,3.4-4.2,2.27-7.77,5.27-10.7,9-2.93,3.73-5.2,7.97-6.8,12.7-1.6,4.73-2.4,9.5-2.4,14.3,0,5.2.93,10.13,2.8,14.8,1.87,4.67,4.4,8.73,7.6,12.2,3.2,3.47,6.97,6.23,11.3,8.3,4.33,2.07,9.03,3.1,14.1,3.1Z" style="fill: #e45f20; stroke-width: 0px;"/>
    <path d="M466.2,144.54c-7.87,0-15.07-1.43-21.6-4.3-6.53-2.87-12.13-6.77-16.8-11.7-4.67-4.93-8.3-10.7-10.9-17.3-2.6-6.6-3.9-13.57-3.9-20.9s1.3-14.27,3.9-20.8c2.6-6.53,6.27-12.27,11-17.2,4.73-4.93,10.37-8.83,16.9-11.7,6.53-2.87,13.73-4.3,21.6-4.3s15.03,1.47,21.5,4.4c6.47,2.93,11.97,6.83,16.5,11.7,4.53,4.87,8.03,10.53,10.5,17,2.47,6.47,3.7,13.17,3.7,20.1,0,1.47-.03,2.8-.1,4-.07,1.2-.17,2.13-.3,2.8h-86.6c.4,5.2,1.6,9.93,3.6,14.2,2,4.27,4.6,7.93,7.8,11,3.2,3.07,6.83,5.47,10.9,7.2,4.07,1.73,8.37,2.6,12.9,2.6,3.2,0,6.33-.43,9.4-1.3,3.07-.87,5.93-2.03,8.6-3.5,2.67-1.47,5.03-3.27,7.1-5.4,2.07-2.13,3.63-4.53,4.7-7.2l15.2,4.2c-1.73,3.87-4.1,7.4-7.1,10.6s-6.47,5.97-10.4,8.3c-3.93,2.33-8.3,4.17-13.1,5.5-4.8,1.33-9.8,2-15,2ZM502,83.34c-.4-4.93-1.63-9.5-3.7-13.7-2.07-4.2-4.67-7.77-7.8-10.7-3.13-2.93-6.77-5.23-10.9-6.9-4.13-1.67-8.53-2.5-13.2-2.5s-9.07.83-13.2,2.5c-4.13,1.67-7.77,4-10.9,7-3.13,3-5.67,6.57-7.6,10.7-1.93,4.13-3.1,8.67-3.5,13.6h70.8Z" style="fill: #e45f20; stroke-width: 0px;"/>
    <path d="M638.93,79.09c9.83-2.62,19.72-1.9,28.5,1.51l-3.14,3.27-23,26.01.2.33c2.49,4.19,5.63,7.66,10.02,9.83,4.52,2.16,10.22,3.14,15.59,3.47l11.53-31.31,1.25-4.39c7.34,5.9,12.91,14.09,15.59,23.91,7.66-9.96,9.24-20.77,4.78-32.43,18.21-23.26,22.21-43.96,12.05-62.04-20.77.26-36.62,14.09-47.69,41.47-12.32,1.9-20.9,8.71-25.68,20.38h0ZM697.17,43.45c4.39,2.49,5.83,8.06,3.34,12.38-2.49,4.32-8.06,5.83-12.38,3.34-4.39-2.55-5.83-8.06-3.34-12.45,2.49-4.32,8.06-5.83,12.38-3.27h0Z" style="fill: #e45f20; fill-rule: evenodd; stroke-width: 0px;"/>
    <path d="M722.76,70.2c-1.59-3.95-3.58-7.62-5.95-11.05-2.86,6.34-6.9,12.86-12.14,19.56,1.19,3.79,1.79,7.69,1.79,11.7,0,4.8-.83,9.5-2.5,14.1-1.67,4.6-4.1,8.7-7.3,12.3-3.2,3.6-7.1,6.53-11.7,8.8-4.6,2.27-9.9,3.4-15.9,3.4s-11.1-1.07-15.7-3.2c-4.6-2.13-8.57-5-11.9-8.6-3.33-3.6-5.87-7.7-7.6-12.3-1.73-4.6-2.6-9.37-2.6-14.3,0-4.67.87-9.3,2.6-13.9,1.73-4.6,4.2-8.7,7.4-12.3,3.2-3.6,7.13-6.53,11.8-8.8,3.14-1.53,6.56-2.53,10.25-3.02,3.21-6.92,6.8-12.91,10.75-17.98-1.57-.12-3.17-.19-4.8-.19-8.4,0-16.13,1.53-23.2,4.6-7.07,3.07-13.2,7.2-18.4,12.4-5.2,5.2-9.27,11.17-12.2,17.9-2.93,6.73-4.4,13.77-4.4,21.1s1.4,14.17,4.2,20.9c2.8,6.73,6.73,12.73,11.8,18,5.07,5.27,11.13,9.5,18.2,12.7,7.07,3.2,14.93,4.8,23.6,4.8s16.13-1.53,23.2-4.6c7.07-3.07,13.2-7.2,18.4-12.4,5.2-5.2,9.23-11.17,12.1-17.9,2.87-6.73,4.3-13.77,4.3-21.1,0-6.93-1.37-13.8-4.1-20.6Z" style="fill: #fff; stroke-width: 0px;"/>
    <path d="M600.46,60.4c-8.53.27-16.07,2.23-22.6,5.9-6.53,3.67-11.27,8.9-14.2,15.7v64h-22V41.4h20.4v23.4c3.73-7.2,8.5-13.07,14.3-17.6,5.8-4.53,11.97-6.8,18.5-6.8h3.3c.87,0,1.63.07,2.3.2v19.8Z" style="fill: #fff; stroke-width: 0px;"/>
    <path d="M740.46,93.6c0-7.33,1.27-14.27,3.8-20.8,2.53-6.53,6.17-12.27,10.9-17.2,4.73-4.93,10.43-8.83,17.1-11.7,6.67-2.87,14.13-4.3,22.4-4.3,10.8,0,20.1,2.37,27.9,7.1,7.8,4.73,13.63,11.03,17.5,18.9l-21.4,6.8c-2.53-4.4-5.93-7.83-10.2-10.3-4.27-2.47-9-3.7-14.2-3.7-4.4,0-8.5.87-12.3,2.6-3.8,1.73-7.1,4.17-9.9,7.3-2.8,3.13-5,6.83-6.6,11.1-1.6,4.27-2.4,9-2.4,14.2s.83,9.77,2.5,14.1c1.67,4.33,3.93,8.1,6.8,11.3,2.87,3.2,6.2,5.7,10,7.5,3.8,1.8,7.83,2.7,12.1,2.7,2.67,0,5.33-.37,8-1.1,2.67-.73,5.1-1.77,7.3-3.1,2.2-1.33,4.13-2.87,5.8-4.6,1.67-1.73,2.9-3.6,3.7-5.6l21.6,6.4c-3.47,7.87-9.27,14.3-17.4,19.3-8.13,5-17.73,7.5-28.8,7.5-8.13,0-15.53-1.47-22.2-4.4-6.67-2.93-12.37-6.9-17.1-11.9-4.73-5-8.4-10.77-11-17.3-2.6-6.53-3.9-13.47-3.9-20.8Z" style="fill: #fff; stroke-width: 0px;"/>
    <path d="M931.46,146l-33.4-48.2-17.4,16.4v31.8h-22V0h22v92.6l48.2-51h23.8l-40.4,43.8,42.8,60.6h-23.6Z" style="fill: #fff; stroke-width: 0px;"/>
    <path d="M1015.66,148c-8.13,0-15.53-1.43-22.2-4.3-6.67-2.87-12.37-6.77-17.1-11.7-4.73-4.93-8.4-10.67-11-17.2-2.6-6.53-3.9-13.47-3.9-20.8s1.3-14.3,3.9-20.9c2.6-6.6,6.27-12.4,11-17.4,4.73-5,10.43-8.93,17.1-11.8,6.67-2.87,14.13-4.3,22.4-4.3s15.5,1.47,22.1,4.4c6.6,2.93,12.23,6.83,16.9,11.7,4.67,4.87,8.23,10.53,10.7,17,2.47,6.47,3.7,13.23,3.7,20.3,0,1.6-.07,3.1-.2,4.5-.13,1.4-.27,2.57-.4,3.5h-83.8c.4,4.67,1.5,8.87,3.3,12.6,1.8,3.73,4.13,6.97,7,9.7,2.87,2.73,6.13,4.83,9.8,6.3,3.67,1.47,7.5,2.2,11.5,2.2,2.93,0,5.83-.37,8.7-1.1,2.87-.73,5.5-1.8,7.9-3.2s4.53-3.1,6.4-5.1c1.87-2,3.33-4.2,4.4-6.6l18.8,5.4c-3.6,7.87-9.57,14.3-17.9,19.3-8.33,5-18.03,7.5-29.1,7.5ZM1047.46,85.8c-.4-4.4-1.5-8.47-3.3-12.2-1.8-3.73-4.1-6.9-6.9-9.5-2.8-2.6-6.07-4.63-9.8-6.1-3.73-1.47-7.67-2.2-11.8-2.2s-8.03.73-11.7,2.2c-3.67,1.47-6.9,3.5-9.7,6.1-2.8,2.6-5.07,5.77-6.8,9.5-1.73,3.73-2.8,7.8-3.2,12.2h63.2Z" style="fill: #fff; stroke-width: 0px;"/>
    <path d="M1144.46,140.6c-2.93,1.33-6.83,2.83-11.7,4.5-4.87,1.67-10.17,2.5-15.9,2.5-3.47,0-6.7-.47-9.7-1.4-3-.93-5.67-2.33-8-4.2-2.33-1.87-4.17-4.3-5.5-7.3-1.33-3-2-6.63-2-10.9V58.4h-14v-17h14V7h22v34.4h22.8v17h-22.8v58.4c0,3.73,1.07,6.43,3.2,8.1,2.13,1.67,4.73,2.5,7.8,2.5s6-.53,8.8-1.6c2.8-1.07,4.87-1.93,6.2-2.6l4.8,17.4Z" style="fill: #fff; stroke-width: 0px;"/>
  </g>
</svg>