<svg version="1.1" xmlns="http://www.w3.org/2000/svg" xmlns:xlink="http://www.w3.org/1999/xlink" width="26px" height="26px" viewBox="0,0,256,256"><g fill="#ffffff" fill-rule="nonzero" stroke="none" stroke-width="1" stroke-linecap="butt" stroke-linejoin="miter" stroke-miterlimit="10" stroke-dasharray="" stroke-dashoffset="0" font-family="none" font-weight="none" font-size="none" text-anchor="none" style="mix-blend-mode: normal"><g transform="scale(9.84615,9.84615)"><path d="M13,0.03125c-5.20312,0 -9.58984,3.60547 -11,8.53125c-1.26172,0.76172 -2,2.22266 -2,3.9375c0,2.48438 1.51563,4.5 4,4.5c0.55469,0 1,-0.44531 1,-1v-7c0,-0.46094 -0.32812,-0.82031 -0.75,-0.9375c1.46094,-3.58203 4.83203,-6.09375 8.75,-6.09375c3.91797,0 7.28906,2.51172 8.75,6.09375c-0.42187,0.11719 -0.75,0.47656 -0.75,0.9375v7c0,0.55469 0.44531,1 1,1c0.23438,0 0.44141,-0.02734 0.65625,-0.0625c-0.32422,1.86719 -1.10547,3.25781 -1.90625,4.21875c-0.5,0.60156 -1.00781,1.03516 -1.40625,1.3125c-0.19922,0.14063 -0.35156,0.22656 -0.46875,0.28125c-0.05859,0.02734 -0.10547,0.05469 -0.125,0.0625h-1.875c-0.35937,-1.04297 -1.50781,-1.8125 -2.875,-1.8125c-1.65625,0 -3,1.12109 -3,2.5c0,1.37891 1.34375,2.5 3,2.5c1.36719,0 2.51563,-0.76953 2.875,-1.8125h1.96875c0.33984,0 0.42578,-0.08984 0.625,-0.1875c0.19922,-0.09766 0.4375,-0.23047 0.6875,-0.40625c0.5,-0.35156 1.10547,-0.85937 1.6875,-1.5625c1.05469,-1.26953 2.03516,-3.15625 2.28125,-5.6875c1.17969,-0.78125 1.875,-2.19141 1.875,-3.84375c0,-1.71484 -0.73828,-3.17578 -2,-3.9375c-1.41016,-4.92578 -5.79687,-8.53125 -11,-8.53125z"></path></g></g></svg>