<?xml version="1.0" encoding="UTF-8"?>
<svg id="uuid-bf99c225-ab67-4e45-b157-c25e71c6d37b" data-name="MageRocket" xmlns="http://www.w3.org/2000/svg" width="160.12mm" height="80.77mm" viewBox="0 0 453.87 228.96">
    <g>
      <path d="M153.38,79.96h-13.25v-43.97c0-8.23-1.33-14.31-3.99-18.22-2.66-3.91-6.6-5.87-11.82-5.87s-10.27,1.93-14.53,5.8c-4.27,3.87-7.3,8.86-9.11,14.98v47.28h-13.25v-43.97c0-8.43-1.31-14.55-3.91-18.37-2.61-3.81-6.53-5.72-11.75-5.72s-10.14,1.88-14.46,5.65c-4.32,3.76-7.38,8.76-9.19,14.98v47.43h-13.25V1.36h12.05v16.86c3.21-5.82,7.38-10.31,12.5-13.48,5.12-3.16,10.89-4.74,17.32-4.74s11.87,1.78,15.74,5.35c3.86,3.56,6.25,8.16,7.15,13.78C106.65,6.38,116.64,0,129.59,0c4.52,0,8.31.83,11.37,2.48,3.06,1.66,5.5,3.97,7.3,6.93,1.81,2.96,3.11,6.45,3.91,10.46.8,4.02,1.21,8.38,1.21,13.1v46.98Z" style="fill: #e45f20; stroke-width: 0px;"/>
      <path d="M194.64,81.46c-3.92,0-7.53-.63-10.84-1.88-3.31-1.25-6.17-2.96-8.58-5.12-2.41-2.16-4.29-4.72-5.65-7.68-1.36-2.96-2.03-6.1-2.03-9.41,0-3.71.8-7.1,2.41-10.16,1.6-3.06,3.89-5.67,6.85-7.83,2.96-2.16,6.47-3.81,10.54-4.97,4.07-1.15,8.51-1.73,13.33-1.73,3.81,0,7.68.35,11.59,1.05,3.92.7,7.38,1.66,10.39,2.86v-6.32c0-6.42-1.81-11.47-5.42-15.13-3.61-3.66-8.73-5.5-15.36-5.5-7.93,0-16.26,3.06-25,9.19l-4.37-8.58c5.12-3.41,10.19-5.97,15.21-7.68,5.02-1.71,10.24-2.56,15.66-2.56,10.04,0,17.97,2.76,23.79,8.28,5.82,5.52,8.73,13.3,8.73,23.34v32.07c0,3.11,1.4,4.72,4.22,4.82v11.44c-1,.2-1.96.35-2.86.45-.9.1-1.76.15-2.56.15-2.21,0-4.37-.6-6.48-1.81-2.11-1.21-3.26-3.26-3.46-6.17l-.3-5.57c-1.81,2.41-3.87,4.52-6.17,6.32-2.31,1.81-4.77,3.31-7.38,4.52-2.61,1.2-5.3,2.11-8.06,2.71-2.76.6-5.5.9-8.21.9ZM197.95,71.52c4.22,0,8.33-.9,12.35-2.71,4.01-1.81,7.18-4.01,9.49-6.62,1.91-2.21,2.86-4.27,2.86-6.17v-11.59c-3.11-1.2-6.4-2.13-9.86-2.79-3.46-.65-6.8-.98-10.01-.98-6.83,0-12.3,1.38-16.41,4.14-4.12,2.76-6.17,6.55-6.17,11.37,0,2.01.4,3.94,1.21,5.8.8,1.86,1.96,3.49,3.46,4.89,1.51,1.41,3.36,2.54,5.57,3.39,2.21.85,4.72,1.28,7.53,1.28Z" style="fill: #e45f20; stroke-width: 0px;"/>
      <path d="M288.75,80.86c-5.32,0-10.22-1.1-14.68-3.31-4.47-2.21-8.31-5.17-11.52-8.88-3.21-3.71-5.7-7.98-7.45-12.8-1.76-4.82-2.63-9.84-2.63-15.06,0-5.52.88-10.77,2.63-15.74,1.75-4.97,4.24-9.31,7.45-13.03,3.21-3.71,7.05-6.65,11.52-8.81,4.47-2.16,9.41-3.24,14.83-3.24,6.63,0,12.35,1.61,17.17,4.82,4.82,3.21,8.88,7.28,12.2,12.2V1.36h11.75v77.7c0,5.62-1.05,10.56-3.16,14.83-2.11,4.27-4.97,7.85-8.58,10.77-3.61,2.91-7.86,5.12-12.72,6.62-4.87,1.51-10.06,2.26-15.58,2.26-8.94,0-16.19-1.53-21.76-4.59-5.57-3.06-10.22-7.3-13.93-12.72l7.68-6.78c3.11,4.62,7.13,8.08,12.05,10.39,4.92,2.31,10.24,3.46,15.96,3.46,3.61,0,7.05-.5,10.31-1.51,3.26-1,6.1-2.51,8.51-4.52,2.41-2.01,4.34-4.52,5.8-7.53,1.45-3.01,2.18-6.58,2.18-10.69v-13.85c-1.5,2.41-3.29,4.59-5.34,6.55-2.06,1.96-4.29,3.61-6.7,4.97s-4.97,2.39-7.68,3.09c-2.71.7-5.47,1.05-8.28,1.05ZM292.82,70.02c2.81,0,5.52-.5,8.13-1.51,2.61-1,5.02-2.33,7.23-3.99,2.21-1.66,4.07-3.54,5.57-5.65,1.51-2.11,2.51-4.27,3.01-6.48v-22.59c-1.11-2.71-2.54-5.17-4.29-7.38-1.76-2.21-3.74-4.14-5.95-5.8-2.21-1.66-4.59-2.94-7.15-3.84-2.56-.9-5.15-1.36-7.75-1.36-4.02,0-7.6.85-10.77,2.56-3.16,1.71-5.85,3.97-8.06,6.78-2.21,2.81-3.92,6-5.12,9.56-1.2,3.56-1.81,7.15-1.81,10.77,0,3.92.7,7.63,2.11,11.14,1.41,3.52,3.31,6.58,5.72,9.19,2.41,2.61,5.24,4.69,8.51,6.25,3.26,1.56,6.8,2.33,10.62,2.33Z" style="fill: #e45f20; stroke-width: 0px;"/>
      <path d="M385.87,81.46c-5.92,0-11.35-1.08-16.26-3.24-4.92-2.16-9.14-5.09-12.65-8.81-3.51-3.71-6.25-8.06-8.21-13.03-1.96-4.97-2.94-10.21-2.94-15.74s.98-10.74,2.94-15.66c1.96-4.92,4.72-9.24,8.28-12.95,3.56-3.71,7.8-6.65,12.72-8.81,4.92-2.16,10.34-3.24,16.26-3.24s11.32,1.11,16.19,3.31c4.87,2.21,9.01,5.15,12.42,8.81,3.41,3.67,6.05,7.93,7.91,12.8,1.86,4.87,2.79,9.91,2.79,15.13,0,1.11-.03,2.11-.08,3.01-.05.9-.13,1.61-.23,2.11h-65.2c.3,3.92,1.2,7.48,2.71,10.69,1.51,3.21,3.46,5.97,5.87,8.28,2.41,2.31,5.14,4.12,8.21,5.42,3.06,1.31,6.3,1.96,9.71,1.96,2.41,0,4.77-.33,7.08-.98,2.31-.65,4.47-1.53,6.47-2.63,2.01-1.1,3.79-2.46,5.35-4.07,1.56-1.6,2.73-3.41,3.54-5.42l11.44,3.16c-1.31,2.91-3.09,5.57-5.35,7.98s-4.87,4.49-7.83,6.25c-2.96,1.76-6.25,3.14-9.86,4.14-3.61,1-7.38,1.51-11.29,1.51ZM412.82,35.39c-.3-3.71-1.23-7.15-2.79-10.31-1.56-3.16-3.51-5.85-5.87-8.06-2.36-2.21-5.1-3.94-8.21-5.2-3.11-1.25-6.42-1.88-9.94-1.88s-6.83.63-9.94,1.88c-3.11,1.26-5.85,3.01-8.21,5.27-2.36,2.26-4.27,4.95-5.72,8.06-1.46,3.11-2.33,6.53-2.64,10.24h53.3Z" style="fill: #e45f20; stroke-width: 0px;"/>
      <path d="M44.27,163c-6.43.2-12.1,1.68-17.02,4.44-4.92,2.76-8.48,6.7-10.69,11.82v48.19H0v-78.76h15.36v17.62c2.81-5.42,6.4-9.84,10.77-13.25,4.37-3.41,9.01-5.12,13.93-5.12h2.48c.65,0,1.23.05,1.73.15v14.91Z" style="fill: #fff; stroke-width: 0px;"/>
      <path d="M149.68,188c0-5.52.95-10.74,2.86-15.66,1.91-4.92,4.64-9.24,8.21-12.95,3.56-3.71,7.85-6.65,12.88-8.81,5.02-2.16,10.64-3.24,16.87-3.24,8.13,0,15.13,1.78,21.01,5.35,5.87,3.56,10.26,8.31,13.18,14.23l-16.11,5.12c-1.91-3.31-4.47-5.9-7.68-7.76-3.21-1.86-6.78-2.79-10.69-2.79-3.31,0-6.4.65-9.26,1.96-2.86,1.31-5.35,3.14-7.45,5.5-2.11,2.36-3.76,5.15-4.97,8.36-1.2,3.21-1.81,6.78-1.81,10.69s.63,7.36,1.88,10.62c1.25,3.26,2.96,6.1,5.12,8.51,2.16,2.41,4.67,4.29,7.53,5.65,2.86,1.36,5.9,2.03,9.11,2.03,2.01,0,4.01-.28,6.02-.83,2.01-.55,3.84-1.33,5.5-2.33,1.66-1,3.11-2.16,4.37-3.46,1.25-1.3,2.18-2.71,2.79-4.22l16.26,4.82c-2.61,5.92-6.98,10.77-13.1,14.53-6.12,3.76-13.35,5.65-21.68,5.65-6.12,0-11.7-1.11-16.72-3.31-5.02-2.21-9.31-5.2-12.88-8.96-3.56-3.76-6.32-8.11-8.28-13.03-1.96-4.92-2.94-10.14-2.94-15.66Z" style="fill: #fff; stroke-width: 0px;"/>
      <path d="M293.5,227.45l-25.15-36.29-13.1,12.35v23.94h-16.56v-109.93h16.56v69.72l36.29-38.4h17.92l-30.42,32.98,32.23,45.63h-17.77Z" style="fill: #fff; stroke-width: 0px;"/>
      <path d="M356.89,228.96c-6.12,0-11.7-1.08-16.72-3.24-5.02-2.16-9.31-5.09-12.88-8.81-3.56-3.71-6.32-8.03-8.28-12.95-1.96-4.92-2.94-10.14-2.94-15.66s.98-10.77,2.94-15.74c1.96-4.97,4.72-9.34,8.28-13.1,3.56-3.76,7.85-6.73,12.88-8.89,5.02-2.16,10.64-3.24,16.87-3.24s11.67,1.11,16.64,3.31c4.97,2.21,9.21,5.15,12.72,8.81,3.51,3.67,6.2,7.93,8.06,12.8,1.86,4.87,2.79,9.96,2.79,15.28,0,1.2-.05,2.33-.15,3.39-.1,1.05-.2,1.93-.3,2.64h-63.1c.3,3.52,1.13,6.68,2.48,9.49,1.36,2.81,3.11,5.25,5.27,7.3,2.16,2.06,4.62,3.64,7.38,4.74,2.76,1.11,5.65,1.66,8.66,1.66,2.21,0,4.39-.28,6.55-.83,2.16-.55,4.14-1.36,5.95-2.41s3.41-2.33,4.82-3.84c1.4-1.51,2.51-3.16,3.31-4.97l14.16,4.07c-2.71,5.92-7.2,10.77-13.48,14.53-6.28,3.76-13.58,5.65-21.91,5.65ZM380.84,182.12c-.3-3.31-1.13-6.37-2.48-9.19-1.36-2.81-3.09-5.2-5.2-7.15-2.11-1.96-4.57-3.49-7.38-4.59-2.81-1.1-5.77-1.66-8.88-1.66s-6.05.55-8.81,1.66c-2.76,1.11-5.2,2.64-7.3,4.59-2.11,1.96-3.82,4.34-5.12,7.15-1.31,2.81-2.11,5.87-2.41,9.19h47.59Z" style="fill: #fff; stroke-width: 0px;"/>
      <path d="M453.87,223.38c-2.21,1-5.15,2.13-8.81,3.39-3.67,1.25-7.66,1.88-11.97,1.88-2.61,0-5.04-.35-7.3-1.05-2.26-.7-4.27-1.76-6.02-3.16-1.76-1.4-3.14-3.24-4.14-5.5-1-2.26-1.51-4.99-1.51-8.21v-49.24h-10.54v-12.8h10.54v-25.9h16.56v25.9h17.17v12.8h-17.17v43.97c0,2.81.8,4.84,2.41,6.1,1.6,1.26,3.56,1.88,5.87,1.88s4.52-.4,6.63-1.2c2.11-.8,3.66-1.45,4.67-1.96l3.61,13.1Z" style="fill: #fff; stroke-width: 0px;"/>
      <path d="M136.36,170.38c-1.19-2.97-2.69-5.74-4.48-8.32-2.15,4.77-5.2,9.69-9.14,14.72.9,2.85,1.35,5.79,1.35,8.81,0,3.61-.63,7.15-1.88,10.62-1.26,3.46-3.09,6.55-5.5,9.26-2.41,2.71-5.35,4.92-8.81,6.63-3.46,1.71-7.45,2.56-11.97,2.56s-8.36-.8-11.82-2.41c-3.46-1.6-6.45-3.76-8.96-6.48-2.51-2.71-4.42-5.8-5.72-9.26-1.31-3.46-1.96-7.05-1.96-10.77,0-3.51.65-7,1.96-10.47,1.3-3.46,3.16-6.55,5.57-9.26,2.41-2.71,5.37-4.92,8.88-6.63,2.37-1.15,4.94-1.9,7.72-2.28,2.42-5.21,5.12-9.72,8.09-13.54-1.18-.09-2.38-.15-3.61-.15-6.32,0-12.15,1.16-17.47,3.46-5.32,2.31-9.94,5.42-13.85,9.34-3.92,3.92-6.98,8.41-9.19,13.48-2.21,5.07-3.31,10.37-3.31,15.89s1.05,10.67,3.16,15.74c2.11,5.07,5.07,9.59,8.88,13.55,3.81,3.97,8.38,7.15,13.7,9.56,5.32,2.41,11.24,3.61,17.77,3.61s12.15-1.15,17.47-3.46c5.32-2.31,9.94-5.42,13.85-9.34,3.92-3.92,6.95-8.41,9.11-13.48,2.16-5.07,3.24-10.36,3.24-15.89,0-5.22-1.03-10.39-3.09-15.51Z" style="fill: #fff; stroke-width: 0px;"/>
      <path d="M73.24,177.07c7.4-1.97,14.85-1.43,21.46,1.13l-2.37,2.47-17.31,19.58.15.25c1.87,3.16,4.24,5.77,7.55,7.4,3.4,1.63,7.69,2.37,11.74,2.61l8.68-23.58.94-3.31c5.53,4.44,9.72,10.61,11.74,18.01,5.77-7.5,6.96-15.64,3.6-24.42,13.71-17.51,16.72-33.1,9.08-46.71-15.64.2-27.57,10.61-35.91,31.22-9.27,1.43-15.74,6.56-19.34,15.34h0ZM117.09,150.24c3.3,1.87,4.39,6.07,2.51,9.32-1.87,3.26-6.07,4.39-9.32,2.51-3.31-1.92-4.39-6.07-2.52-9.37,1.87-3.25,6.07-4.39,9.32-2.47h0Z" style="fill: #e45f20; fill-rule: evenodd; stroke-width: 0px;"/>
    </g>
</svg>